<svg width="78" height="24" viewBox="0 0 78 24" className="hover:fill-blue-500" fill="none" xmlns="http://www.w3.org/2000/svg">
<path d="M8.40059 15.547L6.73381 6.99447H6.66713L5.00035 15.547H8.40059ZM0 23.8011L5.30037 0.198897H8.1339L13.4343 23.8011H10.034L9.03397 18.7293H4.40031L3.40024 23.8011H0Z" fill="black"/>
<path d="M15.1086 23.8011V0.198897H18.3755L22.7425 12.6961H22.8092L27.1428 0.198897H30.443V23.8011H27.0428V9.44751H26.9761L23.6092 19.5912H21.9091L18.5755 9.44751H18.5088V23.8011H15.1086Z" fill="black"/>
<path d="M33.7321 23.8011V6.8221H37.1323V23.8011H33.7321Z" fill="black"/>
<path d="M40.4359 23.8011V0.198897H43.8361V10.3094H48.0364V0.198897H51.4367V23.8011H48.0364V13.2928H43.8361V23.8011H40.4359Z" fill="black"/>
<path d="M54.4296 5.76795C54.4296 4.81768 54.5963 3.9779 54.9296 3.24862C55.263 2.51934 55.7075 1.9116 56.2631 1.42542C56.7964 0.961326 57.3965 0.607736 58.0632 0.364642C58.7521 0.121548 59.4411 0 60.13 0C60.8189 0 61.4968 0.121548 62.1635 0.364642C62.8524 0.607736 63.4747 0.961326 64.0303 1.42542C64.5636 1.9116 64.997 2.51934 65.3304 3.24862C65.6637 3.9779 65.8304 4.81768 65.8304 5.76795V18.232C65.8304 19.2265 65.6637 20.0773 65.3304 20.7845C64.997 21.4917 64.5636 22.0773 64.0303 22.5414C63.4747 23.0276 62.8524 23.3923 62.1635 23.6354C61.4968 23.8785 60.8189 24 60.13 24C59.4411 24 58.7521 23.8785 58.0632 23.6354C57.3965 23.3923 56.7964 23.0276 56.2631 22.5414C55.7075 22.0773 55.263 21.4917 54.9296 20.7845C54.5963 20.0773 54.4296 19.2265 54.4296 18.232V5.76795ZM57.8298 18.232C57.8298 19.0497 58.0521 19.6575 58.4965 20.0552C58.9632 20.4309 59.5077 20.6188 60.13 20.6188C60.7523 20.6188 61.2856 20.4309 61.7301 20.0552C62.1968 19.6575 62.4302 19.0497 62.4302 18.232V5.76795C62.4302 4.95027 62.1968 4.35359 61.7301 3.9779C61.2856 3.58011 60.7523 3.38121 60.13 3.38121C59.5077 3.38121 58.9632 3.58011 58.4965 3.9779C58.0521 4.35359 57.8298 4.95027 57.8298 5.76795V18.232Z" fill="black"/>
<path d="M70.6661 23.8011V3.38121H66.7325V0.198897H78V3.38121H74.0664V23.8011H70.6661Z" fill="black"/>
<path d="M33.7321 3.58804V0.198917H37.1323V3.58804H33.7321Z" fill="black"/>
</svg>
